<svg xmlns="http://www.w3.org/2000/svg" xmlns:xlink="http://www.w3.org/1999/xlink" width="1000" zoomAndPan="magnify" viewBox="0 0 750 749.999995" height="1000" preserveAspectRatio="xMidYMid meet" version="1.0"><defs><clipPath id="5eb326e865"><path d="M 375 0 C 167.894531 0 0 167.894531 0 375 C 0 582.105469 167.894531 750 375 750 C 582.105469 750 750 582.105469 750 375 C 750 167.894531 582.105469 0 375 0 Z M 375 0 " clip-rule="nonzero"/></clipPath><clipPath id="43600cca1a"><path d="M 0 0 L 750 0 L 750 750 L 0 750 Z M 0 0 " clip-rule="nonzero"/></clipPath><clipPath id="a9704dad61"><path d="M 375 0 C 167.894531 0 0 167.894531 0 375 C 0 582.105469 167.894531 750 375 750 C 582.105469 750 750 582.105469 750 375 C 750 167.894531 582.105469 0 375 0 Z M 375 0 " clip-rule="nonzero"/></clipPath><clipPath id="e6df261fb5"><rect x="0" width="750" y="0" height="750"/></clipPath><clipPath id="74df18049f"><path d="M 200.71875 199 L 549.46875 199 L 549.46875 551 L 200.71875 551 Z M 200.71875 199 " clip-rule="nonzero"/></clipPath></defs><g clip-path="url(#5eb326e865)"><g transform="matrix(1, 0, 0, 1, 0, -0.000000000000042435)"><g clip-path="url(#e6df261fb5)"><g clip-path="url(#43600cca1a)"><g clip-path="url(#a9704dad61)"><rect x="-165" width="1080" fill="#5e17eb" height="1079.999992" y="-164.999999" fill-opacity="1"/></g></g></g></g></g><g clip-path="url(#74df18049f)"><path fill="#ffffff" d="M 392.636719 434.882812 C 392.636719 398.40625 392.636719 380.097656 404.136719 368.777344 C 415.640625 357.457031 434.207031 357.457031 471.207031 357.457031 C 508.207031 357.457031 526.640625 357.457031 538.140625 368.777344 C 549.644531 380.097656 549.644531 398.40625 549.644531 434.882812 L 549.644531 473.457031 C 549.644531 509.933594 549.644531 528.242188 538.140625 539.5625 C 526.640625 550.882812 508.207031 550.882812 471.207031 550.882812 C 434.207031 550.882812 415.640625 550.882812 404.136719 539.5625 C 392.636719 528.242188 392.636719 509.933594 392.636719 473.457031 Z M 200.847656 489.386719 C 200.847656 508.394531 200.847656 518.039062 203.894531 525.585938 C 204.855469 528.039062 206.042969 530.375 207.457031 532.59375 C 208.875 534.816406 210.488281 536.878906 212.308594 538.785156 C 214.125 540.6875 216.109375 542.402344 218.261719 543.917969 C 220.414062 545.4375 222.691406 546.734375 225.097656 547.808594 C 232.300781 550.882812 241.449219 550.882812 259.742188 550.882812 L 298.957031 550.882812 C 317.25 550.882812 326.394531 550.882812 333.601562 547.808594 C 336.011719 546.746094 338.296875 545.457031 340.453125 543.941406 C 342.609375 542.425781 344.597656 540.714844 346.417969 538.808594 C 348.238281 536.902344 349.851562 534.835938 351.265625 532.613281 C 352.675781 530.386719 353.855469 528.042969 354.804688 525.585938 C 357.851562 518.039062 357.851562 508.394531 357.851562 489.386719 C 357.851562 470.242188 357.851562 460.597656 354.804688 453.050781 C 353.855469 450.601562 352.671875 448.269531 351.257812 446.054688 C 349.847656 443.839844 348.230469 441.785156 346.410156 439.890625 C 344.59375 437.996094 342.605469 436.296875 340.449219 434.796875 C 338.292969 433.292969 336.011719 432.019531 333.601562 430.96875 C 326.394531 427.753906 317.25 427.753906 298.957031 427.753906 L 259.742188 427.753906 C 241.449219 427.753906 232.300781 427.753906 225.097656 430.96875 C 222.695312 432.027344 220.417969 433.3125 218.269531 434.816406 C 216.117188 436.324219 214.132812 438.023438 212.3125 439.914062 C 210.496094 441.808594 208.878906 443.859375 207.460938 446.070312 C 206.046875 448.28125 204.855469 450.609375 203.894531 453.050781 C 200.84375 460.597656 200.84375 470.242188 200.84375 489.386719 Z M 392.636719 260.742188 C 392.636719 241.597656 392.636719 232.09375 395.683594 224.546875 C 396.644531 222.09375 397.832031 219.757812 399.246094 217.535156 C 400.664062 215.316406 402.28125 213.253906 404.097656 211.347656 C 405.914062 209.441406 407.902344 207.730469 410.050781 206.210938 C 412.203125 204.695312 414.480469 203.398438 416.886719 202.324219 C 424.09375 199.109375 433.238281 199.109375 451.53125 199.109375 L 490.746094 199.109375 C 509.039062 199.109375 518.1875 199.109375 525.390625 202.324219 C 527.804688 203.386719 530.085938 204.675781 532.242188 206.191406 C 534.402344 207.703125 536.386719 209.414062 538.207031 211.320312 C 540.027344 213.226562 541.640625 215.292969 543.054688 217.519531 C 544.464844 219.746094 545.644531 222.085938 546.59375 224.546875 C 549.644531 232.09375 549.644531 241.597656 549.644531 260.742188 C 549.644531 279.890625 549.644531 289.394531 546.59375 296.941406 C 545.644531 299.398438 544.464844 301.742188 543.054688 303.964844 C 541.640625 306.191406 540.027344 308.257812 538.207031 310.164062 C 536.390625 312.070312 534.402344 313.78125 532.242188 315.296875 C 530.085938 316.808594 527.804688 318.097656 525.390625 319.164062 C 518.1875 322.238281 509.039062 322.238281 490.746094 322.238281 L 451.53125 322.238281 C 433.238281 322.238281 424.09375 322.238281 416.886719 319.164062 C 414.480469 318.089844 412.203125 316.792969 410.050781 315.273438 C 407.902344 313.757812 405.914062 312.042969 404.097656 310.140625 C 402.28125 308.234375 400.664062 306.171875 399.246094 303.949219 C 397.832031 301.730469 396.644531 299.394531 395.683594 296.941406 C 392.636719 289.394531 392.636719 279.890625 392.636719 260.742188 Z M 200.847656 315.25 C 200.847656 351.726562 200.847656 369.894531 212.347656 381.214844 C 223.847656 392.675781 242.417969 392.675781 279.417969 392.675781 C 316.28125 392.675781 334.847656 392.675781 346.351562 381.214844 C 357.851562 369.894531 357.851562 351.726562 357.851562 315.25 L 357.851562 276.535156 C 357.851562 240.058594 357.851562 221.890625 346.351562 210.570312 C 334.847656 199.109375 316.28125 199.109375 279.417969 199.109375 C 242.417969 199.109375 223.847656 199.109375 212.347656 210.570312 C 200.847656 221.890625 200.847656 240.058594 200.847656 276.535156 Z M 200.847656 315.25 " fill-opacity="1" fill-rule="nonzero"/></g></svg>